<svg width="20" height="20" viewBox="0 0 20 20" fill="none" xmlns="http://www.w3.org/2000/svg">
<path d="M9.54675 14.7834C6.89675 14.6584 4.78841 12.475 4.78841 9.79171C4.78841 7.03337 7.03008 4.79171 9.78841 4.79171C12.4717 4.79171 14.6551 6.90004 14.7801 9.55004L13.0301 9.02504C12.6884 7.55004 11.3634 6.45837 9.78841 6.45837C7.94674 6.45837 6.45508 7.95004 6.45508 9.79171C6.45508 11.3667 7.54674 12.6917 9.02175 13.0334L9.54675 14.7834ZM18.1217 9.79171C18.1217 10.0417 18.1134 10.2917 18.0884 10.5417L16.4467 10.05C16.4551 9.96671 16.4551 9.87504 16.4551 9.79171C16.4551 6.10837 13.4717 3.12504 9.78841 3.12504C6.10508 3.12504 3.12174 6.10837 3.12174 9.79171C3.12174 13.475 6.10508 16.4584 9.78841 16.4584C9.87175 16.4584 9.96341 16.4584 10.0467 16.45L10.5384 18.0917C10.2884 18.1167 10.0384 18.125 9.78841 18.125C5.18841 18.125 1.45508 14.3917 1.45508 9.79171C1.45508 5.19171 5.18841 1.45837 9.78841 1.45837C14.3884 1.45837 18.1217 5.19171 18.1217 9.79171ZM14.9801 13.3417L18.1217 12.2917L9.78841 9.79171L12.2884 18.125L13.3384 14.9834L16.8967 18.5417L18.5467 16.8917L14.9801 13.3417Z" fill="#0A3C87"/>
</svg>
