<svg width="56" height="56" viewBox="0 0 56 56" fill="none" xmlns="http://www.w3.org/2000/svg">
<circle cx="28" cy="28" r="27.5" stroke="white" stroke-opacity="0.08"/>
<path d="M36.0003 26.6666C36.0003 27.5599 36.0003 28.4399 36.0003 29.3333C37.6003 29.3333 39.6803 29.3333 41.3337 29.3333C41.3337 28.4399 41.3337 27.5599 41.3337 26.6666C39.6803 26.6666 37.6003 26.6666 36.0003 26.6666Z" fill="white"/>
<path d="M33.3337 35.4799C34.6137 36.4266 36.2803 37.6799 37.6003 38.6666C38.1337 37.9599 38.667 37.2399 39.2003 36.5333C37.8803 35.5466 36.2137 34.2933 34.9337 33.3333C34.4003 34.0533 33.867 34.7733 33.3337 35.4799Z" fill="white"/>
<path d="M39.2003 19.4666C38.667 18.7599 38.1337 18.0399 37.6003 17.3333C36.2803 18.3199 34.6137 19.5733 33.3337 20.5333C33.867 21.2399 34.4003 21.9599 34.9337 22.6666C36.2137 21.7066 37.8803 20.4666 39.2003 19.4666Z" fill="white"/>
<path d="M17.3337 23.9999C15.867 23.9999 14.667 25.1999 14.667 26.6666V29.3333C14.667 30.7999 15.867 31.9999 17.3337 31.9999H18.667V37.3333H21.3337V31.9999H22.667L29.3337 35.9999V19.9999L22.667 23.9999H17.3337ZM24.0403 26.2799L26.667 24.7066V31.2933L24.0403 29.7199L23.4003 29.3333H17.3337V26.6666H23.4003L24.0403 26.2799Z" fill="white"/>
<path d="M32.667 27.9999C32.667 26.2266 31.8937 24.6266 30.667 23.5333V32.4533C31.8937 31.3733 32.667 29.7733 32.667 27.9999Z" fill="white"/>
</svg>
