<svg width="56" height="56" viewBox="0 0 56 56" fill="none" xmlns="http://www.w3.org/2000/svg">
<circle cx="28" cy="28" r="27.5" stroke="white" stroke-opacity="0.08"/>
<path d="M38.0014 22L39.2547 19.2533L42.0014 18L39.2547 16.7467L38.0014 14L36.748 16.7467L34.0014 18L36.748 19.2533L38.0014 22Z" fill="white"/>
<path d="M22.668 22L23.9214 19.2533L26.668 18L23.9214 16.7467L22.668 14L21.4147 16.7467L18.668 18L21.4147 19.2533L22.668 22Z" fill="white"/>
<path d="M38.0014 29.3333L36.748 32.08L34.0014 33.3333L36.748 34.5867L38.0014 37.3333L39.2547 34.5867L42.0014 33.3333L39.2547 32.08L38.0014 29.3333Z" fill="white"/>
<path d="M34.948 24.8267L31.1747 21.0533C30.908 20.8 30.5747 20.6667 30.228 20.6667C29.8814 20.6667 29.548 20.8 29.2814 21.0533L14.388 35.9467C13.868 36.4667 13.868 37.3067 14.388 37.8267L18.1614 41.6C18.428 41.8667 18.7614 42 19.108 42C19.4547 42 19.788 41.8667 20.0547 41.6133L34.948 26.72C35.468 26.2 35.468 25.3467 34.948 24.8267ZM30.228 23.8933L32.108 25.7733L30.548 27.3333L28.668 25.4533L30.228 23.8933ZM19.108 38.7867L17.228 36.9067L26.788 27.3333L28.668 29.2133L19.108 38.7867Z" fill="white"/>
</svg>
