<svg width="56" height="56" viewBox="0 0 56 56" fill="none" xmlns="http://www.w3.org/2000/svg">
<circle cx="28" cy="28" r="27.5" stroke="white" stroke-opacity="0.08"/>
<path d="M34.667 22.6667H21.3337C19.867 22.6667 18.667 23.8667 18.667 25.3334V38.6667C18.667 40.1334 19.867 41.3334 21.3337 41.3334H34.667C36.1337 41.3334 37.3337 40.1334 37.3337 38.6667V25.3334C37.3337 23.8667 36.1337 22.6667 34.667 22.6667ZM29.3337 39.3334H26.667V37.3334H29.3337V39.3334ZM29.3337 36.0001H26.667C26.667 34.0001 23.3337 32.0001 23.3337 29.3334C23.3337 26.7601 25.427 24.6667 28.0003 24.6667C30.5737 24.6667 32.667 26.7601 32.667 29.3334C32.667 32.0001 29.3337 34.0001 29.3337 36.0001ZM36.0003 20.6667H20.0003C20.0003 19.5601 20.8937 18.6667 22.0003 18.6667H34.0003C35.107 18.6667 36.0003 19.5601 36.0003 20.6667ZM34.667 16.6667H21.3337C21.3337 15.5601 22.227 14.6667 23.3337 14.6667H32.667C33.7737 14.6667 34.667 15.5601 34.667 16.6667Z" fill="white"/>
</svg>
