<svg width="32" height="32" viewBox="0 0 32 32" fill="none" xmlns="http://www.w3.org/2000/svg">
<rect width="32" height="32" rx="16" fill="#FF8157"/>
<g clip-path="url(#clip0_285_159)">
<path d="M19.6666 12.3335H19.6733M12.6666 9.3335H19.3333C21.1742 9.3335 22.6666 10.8259 22.6666 12.6668V19.3335C22.6666 21.1744 21.1742 22.6668 19.3333 22.6668H12.6666C10.8256 22.6668 9.33325 21.1744 9.33325 19.3335V12.6668C9.33325 10.8259 10.8256 9.3335 12.6666 9.3335ZM18.6666 15.5802C18.7489 16.135 18.6541 16.7016 18.3958 17.1995C18.1374 17.6974 17.7287 18.1011 17.2277 18.3533C16.7267 18.6055 16.1589 18.6932 15.6051 18.6041C15.0513 18.515 14.5398 18.2536 14.1431 17.8569C13.7465 17.4603 13.4851 16.9487 13.396 16.395C13.3069 15.8412 13.3946 15.2734 13.6468 14.7724C13.899 14.2714 14.3027 13.8627 14.8006 13.6043C15.2984 13.346 15.8651 13.2512 16.4199 13.3335C16.9859 13.4174 17.5098 13.6811 17.9144 14.0857C18.3189 14.4903 18.5827 15.0142 18.6666 15.5802Z" stroke="white" stroke-linecap="round" stroke-linejoin="round"/>
</g>
<defs>
<clipPath id="clip0_285_159">
<rect width="16" height="16" fill="white" transform="translate(8 8)"/>
</clipPath>
</defs>
</svg>
