<svg width="141" height="40" viewBox="0 0 141 40" fill="none" xmlns="http://www.w3.org/2000/svg">
<path d="M42.439 7.0068C24.1845 13.9497 5.22064 26.6488 0.3459 36.9738C-1.08715 41.6278 5.7097 38.1593 8.42564 35.4612C20.145 23.8191 27.1737 19.6737 40.3078 14.1015C70.2608 1.39385 101.742 -0.0360033 123.391 20.2815C125.198 22.5582 124.565 23.1246 120.01 22.9139C116.021 22.8468 114.858 23.497 115.711 25.4588C117.133 28.7286 120.1 29.1907 132.665 28.5986C140.007 28.1348 140.993 27.5126 140.417 23.8758C139.445 17.7387 130.048 4.08192 127.758 5.60961C126.772 6.23186 126.534 9.29853 127.179 12.2255C127.823 15.1524 127.93 16.9693 126.448 15.6033C103.942 -2.03516 72.044 -4.25307 42.439 7.0068Z" fill="#FF8157"/>
</svg>
