<svg width="32" height="32" viewBox="0 0 32 32" fill="none" xmlns="http://www.w3.org/2000/svg">
<rect width="32" height="32" rx="16" fill="#FF8157"/>
<path fill-rule="evenodd" clip-rule="evenodd" d="M11.9999 10.6668C11.9999 11.4032 11.403 12.0002 10.6666 12.0002C9.93021 12.0002 9.33325 11.4032 9.33325 10.6668C9.33325 9.93045 9.93021 9.3335 10.6666 9.3335C11.403 9.3335 11.9999 9.93045 11.9999 10.6668ZM11.9999 13.6668V22.6668H9.33325V13.6668H11.9999ZM13.9999 13.6668H16.6666V14.2278C17.0836 14.0804 17.5324 14.0002 17.9999 14.0002C20.2091 14.0002 21.9999 15.791 21.9999 18.0002V22.6668H19.3333V18.0002C19.3333 17.2638 18.7363 16.6668 17.9999 16.6668C17.2635 16.6668 16.6666 17.2638 16.6666 18.0002V22.6668H13.9999V18.0002V13.6668Z" fill="white"/>
</svg>
