<svg xmlns="http://www.w3.org/2000/svg" width="148" height="70" viewBox="0 0 400 90">
  <rect width="100%" height="100%" fill="transparent"/>
  <style>
    .main { fill: #80c41c; font-family: Arial, Helvetica, sans-serif; font-size: 28px; font-weight: bold;}
    .tag  { fill: #ff8001; font-family: Arial, Helvetica, sans-serif; font-size: 16px;}
    .d{stroke:#62b622;}
    .d,.e{fill:none;stroke-miterlimit:10;stroke-width:.5px;}
    .e{stroke:#80c41c;}
    .g{fill:#ff8001;}
  </style>
  <!-- SCALE THE WHOLE THING DOWN -->
  <g transform="scale(1)">
    <g>
      <!-- Icon -->
      <g transform="translate(0,-123) scale(1.8)">
        <path class="e" d="M11.88,46.14c-4.83,9.91-3.04,17.78,5.31,22.8"/>
        <path class="d" d="M7.36,46.94c5.07,.02,9.19,3.35,9.75,9.45"/>
        <path class="e" d="M.24,55.24c1.55-6.45,8.04-10.42,14.5-8.88"/>
        <path class="e" d="M4.22,48.83c-2.42,13.82,7.73,18.65,17.45,16.3"/>
        <path class="e" d="M1.8,64.42c3.23-10.2,9.51-15.23,19.55-13.86"/>
        <circle class="g" cx="9.63" cy="52.59" r="1.3"/>
        <path class="e" d="M23.65,60.85c-1.55,6.45-8.04,10.42-14.5,8.88"/>
        <circle class="g" cx="4.48" cy="58.02" r="1.12"/>
        <path class="d" d="M18.86,58.86c-2.46,6.6-7.55,8.48-11.37,8.2"/>
        <circle class="g" cx="13.21" cy="65.7" r="1.74"/>
        <circle class="g" cx="15.05" cy="50.56" r=".84"/>
      </g>
      <!-- Text -->
      <g transform="translate(45,-20)">
        <text class="main" x="0" y="0">SYNURGENIX</text>
        <text class="tag"  x="0" y="20">Agile IT Solutions</text>
      </g>
    </g>
  </g>
</svg>