<svg width="76" height="20" viewBox="0 0 76 20" fill="none" xmlns="http://www.w3.org/2000/svg">
<path d="M23.7223 4.46782C13.9027 7.85812 3.63191 13.876 0.902067 18.635C0.0790092 20.7704 3.74643 19.1062 5.22855 17.8443C11.624 12.3992 15.4236 10.4241 22.4961 7.72241C38.6253 1.56103 55.4259 0.510739 66.7088 9.4786C67.6434 10.4914 67.2984 10.7571 64.8731 10.7191C62.7473 10.7392 62.1191 11.0498 62.549 11.9314C63.2656 13.4009 64.8413 13.5734 71.5474 13.1444C75.4669 12.8402 76.0008 12.5446 75.7399 10.8975C75.2996 8.11795 70.4636 2.02456 69.2235 2.74862C68.6897 3.04422 68.524 4.44233 68.8304 5.76567C69.1368 7.08902 69.1707 7.9142 68.398 7.31159C56.624 -0.426658 39.6476 -1.03051 23.7223 4.46782Z" fill="#FF8157"/>
</svg>
