<svg width="50" height="50" viewBox="0 0 50 50" fill="none" xmlns="http://www.w3.org/2000/svg">
<path d="M10.001 32.499C7.92598 32.499 6.05098 33.349 4.70098 34.699C1.75098 37.649 0.000976562 49.999 0.000976562 49.999C0.000976562 49.999 12.351 48.249 15.301 45.299C16.651 43.949 17.501 42.074 17.501 39.999C17.501 35.849 14.151 32.499 10.001 32.499ZM11.776 41.774C11.076 42.474 6.35098 43.674 6.35098 43.674C6.35098 43.674 7.52598 38.974 8.25098 38.249C8.67598 37.774 9.30098 37.499 10.001 37.499C11.376 37.499 12.501 38.624 12.501 39.999C12.501 40.699 12.226 41.324 11.776 41.774ZM38.551 29.124C54.451 13.224 49.151 0.848976 49.151 0.848976C49.151 0.848976 36.776 -4.45102 20.876 11.449L14.651 10.199C13.026 9.87398 11.326 10.399 10.126 11.574L0.000976562 21.724L12.501 27.074L22.926 37.499L28.276 49.999L38.401 39.874C39.576 38.699 40.101 36.999 39.776 35.349L38.551 29.124ZM13.526 22.074L8.75098 20.024L13.676 15.099L17.276 15.824C15.851 17.899 14.576 20.074 13.526 22.074ZM29.976 41.249L27.926 36.474C29.926 35.424 32.101 34.149 34.151 32.724L34.876 36.324L29.976 41.249ZM35.001 25.599C31.701 28.899 26.551 31.599 24.901 32.424L17.576 25.099C18.376 23.474 21.076 18.324 24.401 14.999C36.101 3.29898 44.976 5.02398 44.976 5.02398C44.976 5.02398 46.701 13.899 35.001 25.599ZM32.501 22.499C35.251 22.499 37.501 20.249 37.501 17.499C37.501 14.749 35.251 12.499 32.501 12.499C29.751 12.499 27.501 14.749 27.501 17.499C27.501 20.249 29.751 22.499 32.501 22.499Z" fill="white"/>
</svg>
