<svg width="56" height="56" viewBox="0 0 56 56" fill="none" xmlns="http://www.w3.org/2000/svg">
<circle cx="28" cy="28" r="27.5" stroke="white" stroke-opacity="0.08"/>
<path d="M38.6667 36.6667C40.1333 36.6667 41.32 35.4667 41.32 34.0001L41.3333 19.3334C41.3333 17.8667 40.1333 16.6667 38.6667 16.6667H17.3333C15.8667 16.6667 14.6667 17.8667 14.6667 19.3334V34.0001C14.6667 35.4667 15.8667 36.6667 17.3333 36.6667H12C12 38.1334 13.2 39.3334 14.6667 39.3334H41.3333C42.8 39.3334 44 38.1334 44 36.6667H38.6667ZM17.3333 19.3334H38.6667V34.0001H17.3333V19.3334ZM28 38.0001C27.2667 38.0001 26.6667 37.4001 26.6667 36.6667C26.6667 35.9334 27.2667 35.3334 28 35.3334C28.7333 35.3334 29.3333 35.9334 29.3333 36.6667C29.3333 37.4001 28.7333 38.0001 28 38.0001Z" fill="white"/>
</svg>
