<svg width="20" height="20" viewBox="0 0 20 20" fill="none" xmlns="http://www.w3.org/2000/svg">
<path d="M14.1667 5.20837V10.425L15.8334 11.2584V5.20837C15.8334 4.29171 15.0834 3.54171 14.1667 3.54171H10.8334C10.8334 2.39171 9.90008 1.45837 8.75008 1.45837C7.60008 1.45837 6.66675 2.39171 6.66675 3.54171H3.34175C2.42508 3.54171 1.67508 4.29171 1.67508 5.20837V8.37504C3.91675 8.37504 4.16675 10.175 4.16675 10.625C4.16675 11.075 3.92508 12.875 1.66675 12.875V16.0417C1.66675 16.9584 2.41675 17.7084 3.33341 17.7084H6.50008C6.50008 15.9084 7.64175 15.3917 8.33342 15.2584V13.5667C7.14175 13.7084 5.70842 14.4334 5.10841 16.0417H3.33341V14.2667C5.14175 13.6 5.83342 11.875 5.83342 10.625C5.83342 9.38337 5.14175 7.65837 3.34175 6.98337V5.20837H8.33342V3.54171C8.33342 3.30837 8.51675 3.12504 8.75008 3.12504C8.98342 3.12504 9.16675 3.30837 9.16675 3.54171V5.20837H14.1667Z" fill="#1A5FC7"/>
<path d="M10.0001 10.2084V13.5417L13.3334 14.375L10.0001 15.2084V18.5417L18.3334 14.375L10.0001 10.2084Z" fill="#1A5FC7"/>
</svg>
