<svg width="32" height="32" viewBox="0 0 32 32" fill="none" xmlns="http://www.w3.org/2000/svg">
<rect width="32" height="32" rx="16" fill="#FF8157"/>
<path d="M22.5302 12.2835C22.0404 12.483 21.5234 12.6078 20.9792 12.6826C21.5234 12.3833 21.9588 11.9094 22.1492 11.3357C21.6323 11.6101 21.0609 11.8096 20.435 11.9343C19.9453 11.4604 19.2378 11.1611 18.476 11.1611C17.0067 11.1611 15.8095 12.2586 15.8095 13.6054C15.8095 13.805 15.8367 13.9796 15.8911 14.1541C13.6872 14.0544 11.7009 13.0817 10.3676 11.5851C10.15 11.9593 10.0139 12.3583 10.0139 12.8073C10.0139 13.6553 10.4765 14.4036 11.2111 14.8525C10.7758 14.8276 10.3676 14.7278 9.9867 14.5532V14.5782C9.9867 15.7754 10.9118 16.773 12.1362 16.9975C11.9186 17.0474 11.6737 17.0723 11.4288 17.0723C11.2655 17.0723 11.0751 17.0474 10.9118 17.0225C11.2655 17.9952 12.2451 18.7185 13.4151 18.7185C12.49 19.367 11.3472 19.7661 10.0955 19.7661C9.87787 19.7661 9.66019 19.7661 9.46973 19.7411C10.6669 20.4395 12.0546 20.8386 13.5783 20.8386C18.5032 20.8386 21.1969 17.0973 21.1969 13.8548C21.1969 13.7551 21.1969 13.6304 21.1969 13.5306C21.7139 13.2064 22.1764 12.7824 22.5302 12.2835Z" fill="white"/>
</svg>
