<svg width="60" height="60" viewBox="0 0 60 60" fill="none" xmlns="http://www.w3.org/2000/svg">
<path d="M28.6373 44.35C20.6873 43.975 14.3623 37.425 14.3623 29.375C14.3623 21.1 21.0873 14.375 29.3623 14.375C37.4123 14.375 43.9623 20.7 44.3373 28.65L39.0873 27.075C38.0623 22.65 34.0873 19.375 29.3623 19.375C23.8373 19.375 19.3623 23.85 19.3623 29.375C19.3623 34.1 22.6373 38.075 27.0623 39.1L28.6373 44.35ZM54.3623 29.375C54.3623 30.125 54.3373 30.875 54.2623 31.625L49.3373 30.15C49.3623 29.9 49.3623 29.625 49.3623 29.375C49.3623 18.325 40.4123 9.375 29.3623 9.375C18.3123 9.375 9.3623 18.325 9.3623 29.375C9.3623 40.425 18.3123 49.375 29.3623 49.375C29.6123 49.375 29.8873 49.375 30.1373 49.35L31.6123 54.275C30.8623 54.35 30.1123 54.375 29.3623 54.375C15.5623 54.375 4.3623 43.175 4.3623 29.375C4.3623 15.575 15.5623 4.375 29.3623 4.375C43.1623 4.375 54.3623 15.575 54.3623 29.375ZM44.9373 40.025L54.3623 36.875L29.3623 29.375L36.8623 54.375L40.0123 44.95L50.6873 55.625L55.6373 50.675L44.9373 40.025Z" fill="white"/>
</svg>
