<svg width="18" height="18" viewBox="0 0 18 18" fill="none" xmlns="http://www.w3.org/2000/svg">
<path d="M8.54577 13.7834C5.89577 13.6584 3.78744 11.475 3.78744 8.79171C3.78744 6.03337 6.0291 3.79171 8.78744 3.79171C11.4708 3.79171 13.6541 5.90004 13.7791 8.55004L12.0291 8.02504C11.6874 6.55004 10.3624 5.45837 8.78744 5.45837C6.94577 5.45837 5.4541 6.95004 5.4541 8.79171C5.4541 10.3667 6.54577 11.6917 8.02077 12.0334L8.54577 13.7834ZM17.1208 8.79171C17.1208 9.04171 17.1124 9.29171 17.0874 9.54171L15.4458 9.05004C15.4541 8.96671 15.4541 8.87504 15.4541 8.79171C15.4541 5.10837 12.4708 2.12504 8.78744 2.12504C5.1041 2.12504 2.12077 5.10837 2.12077 8.79171C2.12077 12.475 5.1041 15.4584 8.78744 15.4584C8.87077 15.4584 8.96244 15.4584 9.04577 15.45L9.53743 17.0917C9.28743 17.1167 9.03744 17.125 8.78744 17.125C4.18744 17.125 0.454102 13.3917 0.454102 8.79171C0.454102 4.19171 4.18744 0.458374 8.78744 0.458374C13.3874 0.458374 17.1208 4.19171 17.1208 8.79171ZM13.9791 12.3417L17.1208 11.2917L8.78744 8.79171L11.2874 17.125L12.3374 13.9834L15.8958 17.5417L17.5458 15.8917L13.9791 12.3417Z" fill="#1A5FC7"/>
</svg>
